<svg preserveAspectRatio="none" width="100%" height="100%" overflow="visible" style="display: block;" viewBox="0 0 14.258 17.6439" fill="none" xmlns="http://www.w3.org/2000/svg">
<path id="Vector 21453" d="M1.2979 6.49381C1.2979 6.49381 2.07419 7.90177 2.08887 7.63461C2.10356 7.36745 2.34058 5.83819 2.52042 5.47107C4.03046 2.63881 4.35865 2.60945 4.49785 2.79607C4.63705 2.9827 4.89333 3.55655 4.96524 4.09414C5.03715 4.63173 5.20551 4.15576 5.25287 4.09414C5.30023 4.03252 7.40459 1.04834 8.48866 0.553764C9.57272 0.0591892 10.2982 -0.169979 10.1425 0.278397C9.98677 0.726773 9.4606 3.98006 9.74702 4.09414C10.0334 4.20822 11.7244 3.18936 11.9761 3.77943C12.1775 4.25149 11.3643 7.7114 11.5447 7.71325C11.725 7.7151 12.4723 7.06024 13.3064 6.96582C14.349 6.84781 14.3131 7.31987 14.0974 8.06729C13.9248 8.66523 10.5578 16.1907 10.4661 16.3676C10.3744 16.5446 9.89083 17.574 9.74702 17.5871C9.11424 17.7445 7.9696 16.6602 7.87745 16.5643C7.7853 16.4685 4.96781 16.4685 4.89333 16.5643C4.81886 16.6602 4.78089 17.2133 4.56975 17.4691C4.35862 17.7249 2.8727 17.894 1.40581 15.3449C-0.0610828 12.7957 0.0395387 8.30332 0.0395387 8.30332C0.0395387 8.30332 0.0179668 7.93358 0.363118 6.92653C0.708269 5.91947 1.13012 6.21844 1.2979 6.49381Z" fill="var(--fill-0, #FE7023)" stroke="var(--stroke-0, #111143)" stroke-width="0.0761486"/>
</svg>
