<svg preserveAspectRatio="none" width="100%" height="100%" overflow="visible" style="display: block;" viewBox="0 0 12 14.4" fill="none" xmlns="http://www.w3.org/2000/svg">
<path id="Vector" d="M1.5 14.4H10.5C11.325 14.4 12 13.752 12 12.96V6.48C12 5.688 11.325 5.04 10.5 5.04H9.75V3.6C9.75 1.6128 8.07 0 6 0C3.93 0 2.25 1.6128 2.25 3.6V5.04H1.5C0.675 5.04 0 5.688 0 6.48V12.96C0 13.752 0.675 14.4 1.5 14.4ZM3.75 3.6C3.75 2.412 4.7625 1.44 6 1.44C7.2375 1.44 8.25 2.412 8.25 3.6V5.04H3.75V3.6Z" fill="var(--fill-0, #FE7023)"/>
</svg>
