<svg preserveAspectRatio="none" width="100%" height="100%" overflow="visible" style="display: block;" viewBox="0 0 161.684 142.139" fill="none" xmlns="http://www.w3.org/2000/svg">
<g id="Group 2085667911">
<path id="Vector 21488" d="M14.5659 95.0257C15.0672 94.8126 15.2844 94.2356 15.0511 93.7369C14.8177 93.2382 14.2221 93.0066 13.7208 93.2197L14.1433 94.1227L14.5659 95.0257ZM3.98263 97.3589C3.48131 97.572 3.26408 98.1491 3.49745 98.6478C3.73082 99.1465 4.32641 99.378 4.82774 99.1649L4.40518 98.2619L3.98263 97.3589ZM14.1433 94.1227L13.7208 93.2197L3.98263 97.3589L4.40518 98.2619L4.82774 99.1649L14.5659 95.0257L14.1433 94.1227Z" fill="#FE7023"/>
<path id="Vector 21489" d="M12.0981 88.9603C12.6451 88.8974 13.0222 88.4097 12.9406 87.871C12.8589 87.3323 12.3494 86.9467 11.8024 87.0096L11.9503 87.985L12.0981 88.9603ZM0.853551 88.2697C0.306631 88.3327 -0.070542 88.8204 0.011111 89.359C0.0927641 89.8977 0.602323 90.2834 1.14924 90.2204L1.0014 89.2451L0.853551 88.2697ZM11.9503 87.985L11.8024 87.0096L0.853551 88.2697L1.0014 89.2451L1.14924 90.2204L12.0981 88.9603L11.9503 87.985Z" fill="#FE7023"/>
<path id="Vector 21490" d="M12.8907 82.5572C13.4293 82.6971 13.9677 82.3858 14.0932 81.8619C14.2188 81.3379 13.8841 80.7997 13.3455 80.6598L13.1181 81.6085L12.8907 82.5572ZM2.91696 77.9499C2.37843 77.81 1.84006 78.1213 1.71447 78.6453C1.58888 79.1692 1.92364 79.7074 2.46218 79.8474L2.68957 78.8986L2.91696 77.9499ZM13.1181 81.6085L13.3455 80.6598L2.91696 77.9499L2.68957 78.8986L2.46218 79.8474L12.8907 82.5572L13.1181 81.6085Z" fill="#FE7023"/>
<path id="Vector 21495" d="M149.065 72.3192C144.297 69.3964 135.117 68.2459 135.117 68.2459L134.332 91.98C134.332 91.98 140.618 91.8251 144.294 93.0883C147.574 94.2156 148.381 97.2686 151.866 97.5351C155.889 97.8427 159.7 96.6289 161.028 93.0811C163.805 85.6634 157.32 77.3804 149.065 72.3192Z" fill="#FE7023"/>
<path id="Vector 21494" d="M32.2068 120.621C35.351 116.661 44.16 114.688 44.16 114.688L52.9256 128.038C52.9256 128.038 47.643 128.855 44.9568 130.634C40.5345 133.564 43.998 142.466 38.5818 142.13C35.5673 141.943 34.1516 140.203 32.2068 138.051C27.4993 132.842 27.8605 126.095 32.2068 120.621Z" fill="#FE7023"/>
<path id="Vector 21492" d="M21.6351 120.992C27.5418 125.401 33.9323 114.979 40.7601 118.025C47.3053 120.945 43.5555 130.416 50.3226 132.859C56.5859 135.12 60.3601 129.643 67.057 129.15C75.3306 128.541 79.9132 132.118 88.1742 131.375C96.1108 130.661 99.8953 124.283 107.698 125.813C111.783 126.614 114.261 127.559 117.26 130.263C120.409 133.102 118.24 140.707 122.44 139.534C126.423 138.421 137.978 132.488 145.549 129.15C149.756 127.296 146.34 121.269 142.76 120.992C137.978 120.621 136.675 122.69 133.596 120.992C127.602 117.685 138.66 111.968 140.768 105.787C145.905 90.7257 145.139 81.012 142.76 65.3657C141.463 56.8363 137.484 23.4427 116.463 10.4813C99.9343 0.289396 84.7215 -3.29524 66.2601 3.43538C50.7877 9.07631 40.6424 24.9204 36.7758 31.9901C23.7283 55.8456 31.8932 73.5751 26.4164 99.8538C24.6904 108.135 14.5647 115.714 21.6351 120.992Z" fill="#FE7023"/>
<g id="Vector 21496" filter="url(#filter0_f_0_94)">
<path d="M36.2437 108.305C40.72 111.646 45.5629 103.748 50.7372 106.056C55.6973 108.269 52.8556 115.446 57.9839 117.298C62.7304 119.011 65.5906 114.861 70.6657 114.487C76.9357 114.026 80.4085 116.737 86.6689 116.173C92.6835 115.633 95.5515 110.798 101.464 111.958C104.56 112.565 106.438 113.281 108.711 115.33C111.098 117.482 109.454 123.245 112.636 122.356C115.655 121.513 124.411 117.017 130.149 114.487C133.337 113.082 130.749 108.515 128.036 108.305C124.411 108.023 123.424 109.592 121.091 108.305C116.549 105.799 124.928 101.466 126.526 96.7822C130.419 85.3681 129.839 78.0068 128.036 66.1496C127.053 59.6858 124.037 34.3792 108.107 24.5567C95.581 16.833 84.0523 14.1164 70.0618 19.2171C58.3363 23.4919 50.6479 35.4991 47.7177 40.8566C37.83 58.935 44.0176 72.3709 39.8671 92.2857C38.5591 98.5616 30.8855 104.305 36.2437 108.305Z" fill="url(#paint0_linear_0_94)"/>
</g>
<path id="Ellipse 8274" d="M92.104 74.8445C92.104 70.3025 95.6265 72.1032 99.9719 72.1032C104.317 72.1032 107.84 70.3025 107.84 74.8445C107.84 79.3864 104.317 83.0683 99.9719 83.0683C95.6265 83.0683 92.104 79.3864 92.104 74.8445Z" fill="#111143"/>
<ellipse id="Ellipse 8274_2" cx="82.25" cy="53.6236" rx="7.31557" ry="11.1665" fill="#111143"/>
<ellipse id="Ellipse 8276" cx="116.779" cy="53.6236" rx="7.31557" ry="11.1665" fill="#111143"/>
</g>
<defs>
<filter id="filter0_f_0_94" x="17.8374" y="0.0858936" width="130.312" height="138.89" filterUnits="userSpaceOnUse" color-interpolation-filters="sRGB">
<feFlood flood-opacity="0" result="BackgroundImageFix"/>
<feBlend mode="normal" in="SourceGraphic" in2="BackgroundImageFix" result="shape"/>
<feGaussianBlur stdDeviation="8.26388" result="effect1_foregroundBlur_0_94"/>
</filter>
<linearGradient id="paint0_linear_0_94" x1="83.2874" y1="-6.15316" x2="83.0325" y2="122.449" gradientUnits="userSpaceOnUse">
<stop stop-color="#FF9D58"/>
<stop offset="1" stop-color="#FE7023"/>
</linearGradient>
</defs>
</svg>
