<svg preserveAspectRatio="none" width="100%" height="100%" overflow="visible" style="display: block;" viewBox="0 0 109 190" fill="none" xmlns="http://www.w3.org/2000/svg">
<g id="Vector 21505" filter="url(#filter0_d_0_97)">
<path d="M32.8135 155.738C39.1904 161.534 46.5394 167.555 57.929 165.636C60.3302 165.232 61.5851 164.803 63.7056 164.035C68.412 162.33 70.084 160.602 73.5006 158.067C79.1482 153.877 81.7328 151.142 84.8026 146.131C88.7757 139.646 89.3821 135.538 88.821 128.664C88.2746 121.969 85.8945 118.293 82.291 111.924C79.4134 106.839 73.2494 99.2607 73.2494 99.2607C73.2494 99.2607 76.6085 104.408 77.7702 107.849C79.598 113.263 81.3725 116.704 78.5237 121.968C77.1453 124.515 77.85 127.956 73.2494 128.082C69.229 128.191 68.0065 125.804 66.2171 123.715C62.6466 119.545 68.6079 116.565 69.231 111.924C70.259 104.268 70.5868 99.8024 67.9752 92.2737C64.6068 82.5631 52.6983 78.8172 50.6455 68.984C49.7737 64.808 49.9734 62.401 50.6455 58.2126C51.2264 54.5928 52.2887 52.6193 53.4082 49.0422C54.9051 44.2595 56.6748 41.6564 57.4267 36.8152C58.1126 32.3991 58.801 29.8232 57.4267 25.4614C56.2118 21.6058 51.6501 16 51.6501 16C51.6501 16 54.1475 21.9911 54.1617 25.8981C54.1737 29.219 53.3972 31.07 52.4036 34.3406C51.5495 37.1521 50.9521 38.7214 49.6409 41.4731C47.7581 45.4243 45.6104 47.4389 43.6132 51.3712C41.5643 55.4055 40.1715 57.6737 39.3436 61.8516C38.5378 65.9177 38.63 68.2601 39.3436 72.3319C40.0413 76.3137 41.3139 78.475 42.8597 82.3756C44.8355 87.3612 47.4628 89.9694 48.6363 95.0394C49.4197 98.424 50.1415 100.386 49.3898 103.773C48.8465 106.221 48.6755 107.723 46.6271 109.887C44.3916 112.248 42.8639 114.222 38.3389 114.836C36.4289 115.095 35.2162 115.118 33.3159 114.836C28.2559 114.085 27.6939 111.248 25.7812 108.431C23.0478 104.405 24.1034 101.677 24.7766 97.3684C25.1809 94.7808 26.7858 90.8181 26.7858 90.8181C26.7858 90.8181 23.5734 94.7197 22.265 97.3684C20.199 101.551 19.9602 104.081 20.0047 108.431C20.0557 113.431 20.2011 116.421 23.2697 121.095C25.3467 124.258 27.3092 125.85 30.5532 128.664C34.1184 131.757 37.4979 132.916 40.8505 136.087C43.7383 138.82 46.0533 140.343 46.8782 143.511C47.5539 146.106 48.6728 148.144 45.8736 150.207C44.3936 151.298 43.233 152.106 40.8505 152.245C38.0542 152.408 36.7772 151.216 34.5716 150.207C30.3018 148.253 26.7858 143.511 26.7858 143.511C26.7858 143.511 28.2068 151.551 32.8135 155.738Z" fill="url(#paint0_linear_0_97)"/>
</g>
<defs>
<filter id="filter0_d_0_97" x="1.43347e-09" y="0" width="109" height="190" filterUnits="userSpaceOnUse" color-interpolation-filters="sRGB">
<feFlood flood-opacity="0" result="BackgroundImageFix"/>
<feColorMatrix in="SourceAlpha" type="matrix" values="0 0 0 0 0 0 0 0 0 0 0 0 0 0 0 0 0 0 127 0" result="hardAlpha"/>
<feOffset dy="4"/>
<feGaussianBlur stdDeviation="10"/>
<feComposite in2="hardAlpha" operator="out"/>
<feColorMatrix type="matrix" values="0 0 0 0 1 0 0 0 0 0.615686 0 0 0 0 0.345098 0 0 0 0.25 0"/>
<feBlend mode="normal" in2="BackgroundImageFix" result="effect1_dropShadow_0_97"/>
<feBlend mode="normal" in="SourceGraphic" in2="effect1_dropShadow_0_97" result="shape"/>
</filter>
<linearGradient id="paint0_linear_0_97" x1="54.5" y1="16" x2="54.5" y2="234.598" gradientUnits="userSpaceOnUse">
<stop stop-color="#FF9D58"/>
<stop offset="1" stop-color="#FE7023"/>
</linearGradient>
</defs>
</svg>
