<svg preserveAspectRatio="none" width="100%" height="100%" overflow="visible" style="display: block;" viewBox="0 0 162.254 220.007" fill="none" xmlns="http://www.w3.org/2000/svg">
<g id="Group 2085667896">
<path id="Vector 21466" d="M38.1388 48.0784C-13.0612 110.478 -1.86122 177.745 10.1388 203.578C20.1373 215.979 30.2813 202.156 32.1406 202.578C34 203 36.5406 216.778 48.1406 219.578C59.7406 222.378 63.7813 210.656 66.6406 207.578C69.5 204.5 96.5 206.078 98.6406 207.578C100.781 209.078 106.641 217.078 108.641 218.578C110.641 220.078 117.141 220.578 124.141 218.578C129.741 216.978 130.5 201 133.141 201.078C135.781 201.156 143.141 209.245 145.141 210.578C147.807 212.078 154.341 213.278 159.141 206.078C163.941 198.878 162.141 162.411 160.641 145.078C158.241 137.078 158.641 106.745 159.141 92.5781L162.141 44.0781C158.541 34.0781 150.974 38.579 147.641 42.0794C143.241 47.2802 134.474 53.9122 130.641 56.5781C127.041 58.5781 126.141 55.7448 126.141 54.0781C124.541 44.4781 130.474 20.4115 133.641 9.57812C136.041 2.77711 132.641 0.411882 130.641 0.0793952C122.641 -1.1206 103.307 11.5794 94.6406 18.0794C89.4406 21.6794 66.5 52 65.6406 52.5794C64.7813 53.1588 62 53 61.6406 52.5794C61.2813 52.1588 59.3406 46.8786 60.1406 42.0794C60.9406 37.2802 57.8073 35.7457 56.1406 35.5784C52.5 35.5784 43.3061 42.5784 38.1388 48.0784Z" fill="url(#paint0_linear_0_136)" fill-opacity="0.25"/>
</g>
<defs>
<linearGradient id="paint0_linear_0_136" x1="81.1272" y1="4.16819e-06" x2="270.77" y2="398.01" gradientUnits="userSpaceOnUse">
<stop stop-color="#FE7023"/>
<stop offset="1" stop-color="#FF9D58"/>
</linearGradient>
</defs>
</svg>
