<svg preserveAspectRatio="none" width="100%" height="100%" overflow="visible" style="display: block;" viewBox="0 0 130.237 176.593" fill="none" xmlns="http://www.w3.org/2000/svg">
<g id="Group 2085667894">
<path id="Vector 21466" d="M30.6129 38.5911C-10.4839 88.6778 -1.49395 142.671 8.13809 163.406C16.1636 173.36 24.3059 162.265 25.7983 162.603C27.2908 162.942 29.3301 174.001 38.641 176.249C47.952 178.496 51.1953 169.088 53.4905 166.617C55.7856 164.146 77.4577 165.413 79.1759 166.617C80.8941 167.821 85.5973 174.242 87.2026 175.446C88.8079 176.65 94.0253 177.052 99.644 175.446C104.139 174.162 104.748 161.337 106.868 161.399C108.988 161.462 114.895 167.955 116.5 169.025C118.641 170.229 123.885 171.192 127.737 165.413C131.59 159.634 130.145 130.363 128.941 116.45C127.015 110.029 127.336 85.6809 127.737 74.3097L130.145 35.3802C127.256 27.3535 121.182 30.9662 118.507 33.7759C114.975 37.9504 107.938 43.2737 104.861 45.4136C101.972 47.0189 101.249 44.7447 101.249 43.4069C99.9651 35.7013 104.728 16.3837 107.269 7.68808C109.196 2.2291 106.467 0.330605 104.861 0.0637282C98.44 -0.899476 82.9217 9.29444 75.9652 14.5118C71.7913 17.4014 53.3776 41.7389 52.6878 42.2039C51.998 42.669 49.7656 42.5415 49.4771 42.2039C49.1886 41.8663 47.631 37.6281 48.2731 33.7759C48.9152 29.9237 46.4002 28.692 45.0624 28.5578C42.1402 28.5578 34.7605 34.1764 30.6129 38.5911Z" fill="url(#paint0_linear_0_106)" fill-opacity="0.15"/>
</g>
<defs>
<linearGradient id="paint0_linear_0_106" x1="65.1184" y1="4.88944e-09" x2="65.1184" y2="176.593" gradientUnits="userSpaceOnUse">
<stop stop-color="#FE7023"/>
<stop offset="1" stop-color="#FF9D58"/>
</linearGradient>
</defs>
</svg>
