<svg preserveAspectRatio="none" width="100%" height="100%" overflow="visible" style="display: block;" viewBox="0 0 194.709 241.196" fill="none" xmlns="http://www.w3.org/2000/svg">
<g id="Group 2085667893">
<path id="Vector 21453" d="M177.412 88.6338C177.412 88.6338 166.754 107.964 166.552 104.296C166.351 100.628 163.097 79.6324 160.627 74.592C139.895 35.7067 135.39 35.3035 133.478 37.8658C131.567 40.4281 128.049 48.3068 127.061 55.6876C126.074 63.0684 123.763 56.5336 123.112 55.6876C122.462 54.8416 93.5704 13.8704 78.6868 7.08014C63.8032 0.289896 53.8422 -2.85646 55.9803 3.2995C58.1185 9.45546 65.3425 54.1213 61.4101 55.6876C57.4778 57.2539 34.2611 43.2655 30.8058 51.3669C28.0415 57.848 39.2055 105.351 36.7292 105.376C34.253 105.401 23.9939 96.4105 12.5419 95.1143C-1.77303 93.494 -1.2794 99.9751 1.6823 110.237C4.05167 118.446 50.2784 221.766 51.5378 224.196C52.7971 226.626 59.4357 240.759 61.4101 240.939C70.0978 243.099 85.8132 228.213 87.0783 226.897C88.3435 225.581 127.026 225.581 128.049 226.897C129.071 228.213 129.592 235.806 132.491 239.319C135.39 242.831 155.791 245.152 175.93 210.154C196.07 175.156 194.689 113.477 194.689 113.477C194.689 113.477 194.985 108.401 190.246 94.5748C185.507 80.7484 179.716 84.8531 177.412 88.6338Z" fill="var(--fill-0, white)" fill-opacity="0.17"/>
</g>
</svg>
