<svg preserveAspectRatio="none" width="100%" height="100%" overflow="visible" style="display: block;" viewBox="0 0 136 173.092" fill="none" xmlns="http://www.w3.org/2000/svg">
<g id="Group 2085667897">
<path id="Vector 21452" d="M0.393163 130.832C1.58228 155.908 8.88805 164.805 14.9533 166.423C21.0185 168.042 20.5615 158.916 25.8734 157.93C34.8011 156.273 34.8903 175.215 43.6691 172.895C49.0679 171.468 49.0428 165.74 53.7803 162.783C64.9018 155.843 75.6188 156.931 87.3494 162.783C92.9779 165.592 93.6007 172.683 99.8873 172.895C107.82 173.161 105.715 158.386 113.639 157.93C118.587 157.645 121.318 165.642 125.367 162.783C132.242 157.93 133.976 143.833 135.479 130.832C137.362 114.543 133.804 105.175 130.221 89.1739C125.909 69.9201 113.639 41.449 113.639 41.449C113.639 41.449 99.8873 10.3066 93.4161 13.5422C86.945 16.7777 90.9908 34.9792 82.0916 34.9779C73.1924 34.9765 64.2945 -3.03991 53.7803 0.195375C43.266 3.43066 45.6901 38.2129 40.029 34.9779C34.368 31.7428 33.1547 22.845 28.3001 22.0356C23.4454 21.2261 11.5612 53.0091 6.05543 74.6138C0.606361 95.996 -0.79595 105.756 0.393163 130.832Z" fill="url(#paint0_linear_0_156)" fill-opacity="0.2"/>
</g>
<defs>
<linearGradient id="paint0_linear_0_156" x1="68" y1="4.3428e-06" x2="68" y2="173.092" gradientUnits="userSpaceOnUse">
<stop stop-color="#FE7023"/>
<stop offset="1" stop-color="#FEB979"/>
</linearGradient>
</defs>
</svg>
