<svg preserveAspectRatio="none" width="100%" height="100%" overflow="visible" style="display: block;" viewBox="0 0 205.031 205" fill="none" xmlns="http://www.w3.org/2000/svg">
<g id="Group 2085667889">
<path id="Vector 21465" d="M15.2091 197.518C26.1681 200.098 28.1395 182.043 39.3962 181.829C53.3506 181.563 53.3004 208.049 66.8518 204.709C74.9217 202.719 78.6189 192.941 82.5407 190.327C86.4624 187.713 125.031 187.059 131.568 190.327C138.106 193.595 143.967 205.944 154.448 204.709C165.972 203.35 162.047 184.202 173.406 181.829C182.97 179.83 187.949 194.154 196.939 190.327C207.199 185.959 204.783 174.023 204.783 162.871C204.783 153.621 202.744 126.086 196.939 103.384C189.88 75.7785 182 51 168.83 36.0528C155.659 21.1056 133.609 3.68916 105.42 0.752777C81.0949 -1.78115 64.6892 1.80208 44.6258 15.788C17.1814 34.9191 9.44862 82.4658 7.36464 92.9251C5.28067 103.384 -1.13226 173.984 0.173895 181.829C1.48005 189.673 6.94884 195.573 15.2091 197.518Z" fill="url(#paint0_linear_0_158)" fill-opacity="0.15"/>
</g>
<defs>
<linearGradient id="paint0_linear_0_158" x1="102.515" y1="3.83511e-08" x2="102.515" y2="205" gradientUnits="userSpaceOnUse">
<stop stop-color="white"/>
<stop offset="1" stop-color="#B7B7B7"/>
</linearGradient>
</defs>
</svg>
