<svg preserveAspectRatio="none" width="100%" height="100%" overflow="visible" style="display: block;" viewBox="0 0 163 501.365" fill="none" xmlns="http://www.w3.org/2000/svg">
<g id="Vector 21504" filter="url(#filter0_d_0_74)">
<path d="M42.8415 445.802C54.209 463.63 67.3094 482.148 87.6126 476.246C91.893 475.002 94.1299 473.684 97.9099 471.322C106.3 466.078 109.28 460.762 115.371 452.965C125.438 440.077 130.045 431.665 135.518 416.253C142.6 396.307 143.681 383.671 142.681 362.528C141.707 341.937 137.464 330.629 131.041 311.041C125.911 295.399 114.923 272.09 114.923 272.09C114.923 272.09 120.911 287.921 122.982 298.505C126.24 315.157 129.403 325.743 124.325 341.933C121.868 349.767 123.124 360.35 114.923 360.737C107.756 361.075 105.577 353.733 102.387 347.306C96.0222 334.482 106.649 325.315 107.76 311.041C109.592 287.493 110.176 273.757 105.521 250.6C99.5164 220.733 78.2883 209.211 74.629 178.967C73.0749 166.122 73.4308 158.719 74.629 145.836C75.6645 134.702 77.5582 128.632 79.5538 117.63C82.2221 102.92 85.3768 94.9132 86.7172 80.0226C87.9398 66.4399 89.1671 58.517 86.7172 45.1012C84.5515 33.2421 76.4198 16 76.4198 16C76.4198 16 80.8717 34.4272 80.8969 46.4443C80.9184 56.6587 79.5341 62.3518 77.763 72.4115C76.2405 81.059 75.1755 85.8857 72.8381 94.3493C69.4819 106.502 65.6532 112.699 62.0931 124.794C58.4407 137.202 55.9579 144.179 54.482 157.029C53.0456 169.535 53.21 176.74 54.482 189.264C55.7258 201.511 57.9944 208.158 60.75 220.156C64.2719 235.491 68.9554 243.513 71.0473 259.107C72.4438 269.517 73.7304 275.552 72.3904 285.969C71.422 293.498 71.1171 298.118 67.4656 304.773C63.4806 312.036 60.7574 318.107 52.6912 319.995C49.2864 320.792 47.1245 320.863 43.737 319.995C34.717 317.685 33.7152 308.961 30.3056 300.296C25.4331 287.914 27.3147 279.522 28.5148 266.27C29.2355 258.312 32.0965 246.123 32.0965 246.123C32.0965 246.123 26.37 258.124 24.0377 266.27C20.3548 279.134 19.9291 286.916 20.0083 300.296C20.0994 315.676 20.3584 324.873 25.8285 339.247C29.531 348.976 33.0295 353.872 38.8121 362.528C45.1675 372.042 51.192 375.605 57.1683 385.361C62.316 393.765 66.4429 398.45 67.9133 408.194C69.1179 416.177 71.1123 422.443 66.1225 428.789C63.4842 432.145 61.4153 434.63 57.1683 435.057C52.1837 435.558 49.9072 431.894 45.9755 428.789C38.364 422.778 32.0965 408.194 32.0965 408.194C32.0965 408.194 34.6295 432.923 42.8415 445.802Z" fill="url(#paint0_linear_0_74)"/>
</g>
<defs>
<filter id="filter0_d_0_74" x="-5.6524e-10" y="0" width="163" height="501.365" filterUnits="userSpaceOnUse" color-interpolation-filters="sRGB">
<feFlood flood-opacity="0" result="BackgroundImageFix"/>
<feColorMatrix in="SourceAlpha" type="matrix" values="0 0 0 0 0 0 0 0 0 0 0 0 0 0 0 0 0 0 127 0" result="hardAlpha"/>
<feOffset dy="4"/>
<feGaussianBlur stdDeviation="10"/>
<feComposite in2="hardAlpha" operator="out"/>
<feColorMatrix type="matrix" values="0 0 0 0 1 0 0 0 0 0.615686 0 0 0 0 0.345098 0 0 0 0.25 0"/>
<feBlend mode="normal" in2="BackgroundImageFix" result="effect1_dropShadow_0_74"/>
<feBlend mode="normal" in="SourceGraphic" in2="effect1_dropShadow_0_74" result="shape"/>
</filter>
<linearGradient id="paint0_linear_0_74" x1="81.5" y1="16" x2="81" y2="698" gradientUnits="userSpaceOnUse">
<stop stop-color="#FF9D58"/>
<stop offset="1" stop-color="#FE7023"/>
</linearGradient>
</defs>
</svg>
