<svg preserveAspectRatio="none" width="100%" height="100%" overflow="visible" style="display: block;" viewBox="0 0 78 122" fill="none" xmlns="http://www.w3.org/2000/svg">
<g id="Vector 21505" filter="url(#filter0_d_0_74)">
<path d="M27.0567 92.3902C30.5686 95.5588 34.6159 98.8501 40.8884 97.8012C42.2109 97.58 42.9019 97.3457 44.0697 96.9258C46.6617 95.9939 47.5825 95.0491 49.4641 93.6634C52.5743 91.3727 53.9978 89.8775 55.6884 87.1384C57.8764 83.5932 58.2104 81.3474 57.9014 77.5896C57.6005 73.9298 56.2897 71.9201 54.3052 68.4387C52.7204 65.6585 49.3258 61.5158 49.3258 61.5158C49.3258 61.5158 51.1757 64.3294 51.8155 66.2106C52.8221 69.1702 53.7993 71.0517 52.2304 73.9292C51.4713 75.3215 51.8594 77.2026 49.3258 77.2713C47.1116 77.3313 46.4384 76.0264 45.4529 74.8841C43.4865 72.6048 46.7695 70.9756 47.1127 68.4387C47.6789 64.2533 47.8594 61.812 46.4211 57.6963C44.566 52.3878 38.0078 50.3401 36.8772 44.9646C36.3971 42.6817 36.5071 41.3659 36.8772 39.0762C37.1972 37.0974 37.7822 36.0185 38.3987 34.0631C39.2231 31.4485 40.1977 30.0255 40.6118 27.379C40.9895 24.9648 41.3687 23.5567 40.6118 21.1723C39.9427 19.0645 37.4305 16 37.4305 16C37.4305 16 38.8059 19.2751 38.8137 21.411C38.8203 23.2264 38.3926 24.2383 37.8455 26.0262C37.3751 27.5632 37.0461 28.421 36.324 29.9253C35.2871 32.0853 34.1043 33.1866 33.0044 35.3363C31.876 37.5416 31.1089 38.7816 30.653 41.0655C30.2092 43.2883 30.26 44.5688 30.653 46.7948C31.0372 48.9715 31.7381 50.153 32.5894 52.2853C33.6775 55.0108 35.1244 56.4366 35.7707 59.2082C36.2022 61.0585 36.5996 62.131 36.1857 63.9826C35.8865 65.3207 35.7923 66.1418 34.6642 67.3247C33.433 68.6155 32.5917 69.6946 30.0997 70.0301C29.0478 70.1718 28.3799 70.1843 27.3334 70.0301C24.5467 69.6196 24.2372 68.0689 23.1839 66.5289C21.6785 64.3282 22.2598 62.8367 22.6306 60.4814C22.8532 59.0668 23.7371 56.9006 23.7371 56.9006C23.7371 56.9006 21.968 59.0334 21.2474 60.4814C20.1096 62.7677 19.9781 64.1507 20.0026 66.5289C20.0307 69.2624 20.1107 70.897 21.8007 73.4518C22.9445 75.181 24.0254 76.0511 25.8119 77.5896C27.7753 79.2805 29.6365 79.9138 31.4829 81.6478C33.0732 83.1414 34.3482 83.9741 34.8025 85.706C35.1746 87.1248 35.7908 88.2384 34.2492 89.3664C33.4342 89.9628 32.795 90.4045 31.4829 90.4804C29.9429 90.5695 29.2396 89.9182 28.025 89.3664C25.6734 88.2981 23.7371 85.706 23.7371 85.706C23.7371 85.706 24.5197 90.1011 27.0567 92.3902Z" fill="url(#paint0_linear_0_74)"/>
</g>
<defs>
<filter id="filter0_d_0_74" x="8.37691e-10" y="0" width="78" height="122" filterUnits="userSpaceOnUse" color-interpolation-filters="sRGB">
<feFlood flood-opacity="0" result="BackgroundImageFix"/>
<feColorMatrix in="SourceAlpha" type="matrix" values="0 0 0 0 0 0 0 0 0 0 0 0 0 0 0 0 0 0 127 0" result="hardAlpha"/>
<feOffset dy="4"/>
<feGaussianBlur stdDeviation="10"/>
<feComposite in2="hardAlpha" operator="out"/>
<feColorMatrix type="matrix" values="0 0 0 0 1 0 0 0 0 0.615686 0 0 0 0 0.345098 0 0 0 0.25 0"/>
<feBlend mode="normal" in2="BackgroundImageFix" result="effect1_dropShadow_0_74"/>
<feBlend mode="normal" in="SourceGraphic" in2="effect1_dropShadow_0_74" result="shape"/>
</filter>
<linearGradient id="paint0_linear_0_74" x1="39" y1="16" x2="39" y2="135.5" gradientUnits="userSpaceOnUse">
<stop stop-color="#FF9D58"/>
<stop offset="1" stop-color="#FE7023"/>
</linearGradient>
</defs>
</svg>
