<svg preserveAspectRatio="none" width="100%" height="100%" overflow="visible" style="display: block;" viewBox="0 0 91.801 124.476" fill="none" xmlns="http://www.w3.org/2000/svg">
<g id="Group 2085667922">
<path id="Vector 21466" d="M21.5783 27.202C-7.38983 62.5069 -1.05305 100.565 5.73636 115.181C11.3934 122.197 17.1327 114.377 18.1847 114.615C19.2367 114.854 20.6741 122.65 27.2372 124.234C33.8003 125.818 36.0864 119.186 37.7042 117.444C39.322 115.703 54.5982 116.596 55.8093 117.444C57.0204 118.293 60.3356 122.819 61.4671 123.668C62.5987 124.517 66.2763 124.8 70.2368 123.668C73.4052 122.763 73.8348 113.723 75.3288 113.767C76.8229 113.811 80.9867 118.387 82.1183 119.142C83.627 119.99 87.3235 120.669 90.0392 116.596C92.755 112.522 91.7366 91.8898 90.8879 82.0829C89.53 77.5566 89.7563 60.3945 90.0392 52.3792L91.7366 24.9387C89.6998 19.2809 85.4187 21.8274 83.5327 23.8078C81.0433 26.7504 76.0832 30.5027 73.9144 32.011C71.8776 33.1426 71.3684 31.5395 71.3684 30.5965C70.4631 25.165 73.8201 11.5485 75.6117 5.41915C76.9696 1.57124 75.046 0.233036 73.9144 0.0449206C69.3881 -0.63402 58.4496 6.55144 53.5462 10.229C50.6041 12.2659 37.6246 29.4208 37.1384 29.7486C36.6522 30.0764 35.0786 29.9866 34.8753 29.7486C34.672 29.5106 33.574 26.5232 34.0266 23.8078C34.4792 21.0925 32.7064 20.2244 31.7635 20.1297C29.7037 20.1297 24.5019 24.0902 21.5783 27.202Z" fill="var(--fill-0, #FE7023)" fill-opacity="0.2"/>
</g>
</svg>
