<svg preserveAspectRatio="none" width="100%" height="100%" overflow="visible" style="display: block;" viewBox="0 0 86.0228 113.181" fill="none" xmlns="http://www.w3.org/2000/svg">
<g id="Group 2085667925">
<path id="Vector 21466" d="M20.2201 24.7336C-6.9247 56.8349 -0.986769 91.4397 5.3753 104.73C10.6762 111.109 16.0543 103.998 17.0401 104.215C18.0259 104.432 19.3728 111.52 25.5228 112.96C31.6728 114.401 33.815 108.371 35.331 106.787C36.847 105.204 51.1616 106.015 52.2965 106.787C53.4314 107.559 56.5379 111.674 57.5982 112.446C58.6586 113.218 62.1047 113.475 65.8159 112.446C68.7849 111.623 69.1875 103.403 70.5874 103.443C71.9874 103.483 75.8892 107.645 76.9495 108.33C78.3633 109.102 81.8271 109.719 84.3719 106.015C86.9167 102.311 85.9624 83.5515 85.1672 74.6344C83.8948 70.5189 84.1068 54.9141 84.3719 47.6262L85.9624 22.6757C84.0538 17.5313 80.0422 19.8467 78.2749 21.6475C75.9422 24.323 71.2943 27.7348 69.262 29.1062C67.3534 30.1351 66.8762 28.6775 66.8762 27.8201C66.028 22.8815 69.1737 10.5005 70.8525 4.9274C72.1249 1.42866 70.3224 0.21189 69.262 0.0408443C65.0206 -0.576487 54.7706 5.95694 50.1758 9.30082C47.4189 11.1528 35.2564 26.751 34.8008 27.0491C34.3452 27.3472 32.8707 27.2655 32.6801 27.0491C32.4896 26.8327 31.4607 24.1164 31.8849 21.6475C32.309 19.1785 30.6478 18.3892 29.7642 18.3031C27.834 18.3031 22.9597 21.9042 20.2201 24.7336Z" fill="var(--fill-0, #FE7023)" fill-opacity="0.2"/>
</g>
</svg>
