<svg preserveAspectRatio="none" width="100%" height="100%" overflow="visible" style="display: block;" viewBox="0 0 197.141 244.369" fill="none" xmlns="http://www.w3.org/2000/svg">
<g id="Group 2085667887">
<path id="Vector 21453" d="M175.361 87.6762C175.361 87.6762 164.856 106.691 164.657 103.083C164.458 99.4749 161.251 78.8221 158.817 73.864C138.382 35.6142 133.941 35.2177 132.057 37.7381C130.173 40.2584 126.705 48.0084 125.732 55.2686C124.759 62.5288 122.481 56.1008 121.84 55.2686C121.199 54.4363 92.7209 14.1348 78.0505 7.45552C63.3801 0.776257 53.5619 -2.31868 55.6694 3.73667C57.7769 9.79202 64.8974 53.7279 61.0214 55.2686C57.1454 56.8092 34.2614 43.0495 30.8555 51.0184C28.1309 57.3936 39.1349 104.12 36.6941 104.145C34.2533 104.17 24.1412 95.3259 12.8533 94.0509C-1.2565 92.4571 -0.76996 98.8323 2.14932 108.926C4.48474 117.002 50.0492 218.633 51.2905 221.023C52.5318 223.413 59.0752 237.315 61.0214 237.492C69.5846 239.617 85.0748 224.974 86.3218 223.679C87.5688 222.385 125.697 222.385 126.705 223.679C127.713 224.974 128.227 232.444 131.084 235.899C133.941 239.353 154.05 241.636 173.901 207.21C193.752 172.784 192.39 112.114 192.39 112.114C192.39 112.114 192.682 107.121 188.011 93.5202C183.341 79.9198 177.632 83.9574 175.361 87.6762Z" fill="var(--fill-0, #FE7023)" stroke="var(--stroke-0, #111143)" stroke-width="0.982196"/>
<g id="Vector 21455" filter="url(#filter0_f_0_288)">
<path d="M159.617 110.252L151.832 121.456C152.682 113.11 149.355 103.812 147.585 100.206C132.723 72.3883 130.6 77.0239 128.123 73.933C126.141 71.4602 124.23 81.4023 123.523 86.6824H120.692C110.784 71.8449 95.3325 57.318 88.8452 51.9093C82.3579 48.9471 70.0203 44.2591 72.568 49.2047C75.7527 55.3867 76.4604 84.7505 76.4604 86.6824C76.4604 88.6143 56.9985 77.7958 54.5216 83.5914C52.54 88.2279 56.5267 111.282 58.7678 122.229C56.4088 120.168 49.6384 115.815 41.4291 114.888C31.1674 113.729 31.5212 118.365 33.6443 125.706C35.3428 131.579 58.178 182.503 69.3833 207.231C71.648 216.504 75.045 219.08 76.4604 219.209C82.6882 220.754 91.3221 213.156 94.8607 209.163H124.23C124.513 215.345 126.471 217.663 127.415 218.05C131.779 221.527 144.117 222.222 158.555 197.185C172.992 172.148 173.535 140.646 172.001 128.024C172.355 127.638 172.214 124.393 168.817 114.502C165.42 104.611 161.268 107.547 159.617 110.252Z" fill="url(#paint0_linear_0_288)"/>
</g>
<path id="Vector 21462" d="M96.8953 168.977C100.678 169.92 101.572 164.193 105.456 163.851C108.042 163.623 109.405 165.668 111.962 165.218C114.628 164.748 116.352 163.753 117.783 161.459C119.922 158.03 118.511 154.661 116.413 151.207C113.623 146.614 109.308 143.754 104.086 145.056C100.498 145.952 99.1856 148.309 96.8953 151.207C93.5893 155.391 89.6788 158.944 91.759 163.851C92.8643 166.458 94.1433 168.29 96.8953 168.977Z" fill="var(--fill-0, #111143)"/>
<path id="Ellipse 8277" d="M91.0462 125.363C90.3444 127.504 89.227 129.487 87.7576 131.197C86.2882 132.907 84.4956 134.312 82.4823 135.331C80.4689 136.349 78.2742 136.963 76.0234 137.135C73.7726 137.307 71.5099 137.036 69.3643 136.335C67.2187 135.635 65.2324 134.52 63.5187 133.053C61.805 131.587 60.3975 129.798 59.3766 127.789C58.3557 125.78 57.7413 123.589 57.5685 121.343C57.3958 119.097 57.6681 116.839 58.3698 114.698L74.708 120.031L91.0462 125.363Z" fill="var(--fill-0, #111143)"/>
<path id="Ellipse 8278" d="M117.131 124.404C117.833 126.545 118.95 128.528 120.419 130.238C121.889 131.948 123.681 133.353 125.695 134.372C127.708 135.39 129.903 136.004 132.154 136.176C134.404 136.348 136.667 136.077 138.813 135.376C140.958 134.676 142.945 133.561 144.658 132.094C146.372 130.628 147.779 128.839 148.8 126.83C149.821 124.821 150.436 122.63 150.608 120.384C150.781 118.138 150.509 115.88 149.807 113.739L133.469 119.072L117.131 124.404Z" fill="var(--fill-0, #111143)"/>
</g>
<defs>
<filter id="filter0_f_0_288" x="7.88346" y="22.4888" width="189.258" height="221.88" filterUnits="userSpaceOnUse" color-interpolation-filters="sRGB">
<feFlood flood-opacity="0" result="BackgroundImageFix"/>
<feBlend mode="normal" in="SourceGraphic" in2="BackgroundImageFix" result="shape"/>
<feGaussianBlur stdDeviation="12.2775" result="effect1_foregroundBlur_0_288"/>
</filter>
<linearGradient id="paint0_linear_0_288" x1="102.512" y1="47.0437" x2="102.512" y2="219.814" gradientUnits="userSpaceOnUse">
<stop stop-color="#FF9D58"/>
<stop offset="1" stop-color="#FE7023"/>
</linearGradient>
</defs>
</svg>
