<svg preserveAspectRatio="none" width="100%" height="100%" overflow="visible" style="display: block;" viewBox="0 0 50.4985 66.4413" fill="none" xmlns="http://www.w3.org/2000/svg">
<g id="Group 2085667923">
<path id="Vector 21466" d="M11.8699 14.5195C-4.06505 33.3641 -0.579269 53.6784 3.15549 61.48C6.26733 65.2248 9.42444 61.0505 10.0031 61.1779C10.5818 61.3053 11.3725 65.4663 14.9828 66.3119C18.5931 67.1574 19.8506 63.6175 20.7406 62.6879C21.6305 61.7583 30.0337 62.2349 30.6999 62.6879C31.3662 63.1409 33.1898 65.5569 33.8122 66.0099C34.4347 66.4629 36.4577 66.6138 38.6363 66.0099C40.3792 65.5267 40.6155 60.7013 41.4374 60.7249C42.2592 60.7485 44.5497 63.1912 45.1721 63.5939C46.0021 64.0469 48.0355 64.4093 49.5294 62.2349C51.0233 60.0605 50.4631 49.0477 49.9962 43.8131C49.2493 41.3971 49.3737 32.2366 49.5294 27.9583L50.4631 13.3114C49.3426 10.2915 46.9876 11.6507 45.9502 12.7078C44.5808 14.2784 41.8524 16.2813 40.6593 17.0864C39.5389 17.6904 39.2588 16.8347 39.2588 16.3314C38.7608 13.4322 40.6074 6.16419 41.593 2.89256C42.3399 0.838677 41.2818 0.124387 40.6593 0.0239771C38.1695 -0.338419 32.1523 3.49694 29.455 5.45992C27.8366 6.5471 20.6968 15.7038 20.4293 15.8788C20.1619 16.0538 19.2963 16.0058 19.1844 15.8788C19.0726 15.7518 18.4686 14.1572 18.7176 12.7078C18.9666 11.2585 17.9914 10.7951 17.4727 10.7446C16.3396 10.7446 13.4782 12.8585 11.8699 14.5195Z" fill="var(--fill-0, #FE7023)" fill-opacity="0.2"/>
</g>
</svg>
