<svg preserveAspectRatio="none" width="100%" height="100%" overflow="visible" style="display: block;" viewBox="0 0 131.25 177.967" fill="none" xmlns="http://www.w3.org/2000/svg">
<g id="Group 2085667924">
<path id="Vector 21466" d="M30.8511 38.8916C-10.5653 89.3679 -1.50547 143.781 8.20151 164.678C16.2895 174.709 24.4951 163.527 25.9991 163.869C27.5032 164.21 29.5584 175.355 38.9418 177.62C48.3252 179.885 51.5937 170.403 53.9067 167.913C56.2197 165.423 78.0604 166.7 79.792 167.913C81.5236 169.127 86.2633 175.598 87.8811 176.811C89.499 178.025 94.7569 178.429 100.419 176.811C104.949 175.517 105.564 162.592 107.7 162.655C109.836 162.719 115.789 169.261 117.407 170.34C119.564 171.553 124.849 172.524 128.731 166.7C132.614 160.876 131.158 131.377 129.945 117.356C128.003 110.885 128.327 86.3477 128.731 74.8881L131.158 35.6557C128.246 27.5665 122.125 31.2073 119.429 34.0389C115.87 38.2459 108.778 43.6106 105.677 45.7671C102.765 47.3849 102.037 45.093 102.037 43.7448C100.743 35.9792 105.542 16.5114 108.104 7.74811C110.045 2.24666 107.295 0.333394 105.677 0.0644411C99.206 -0.906257 83.5669 9.36696 76.5563 14.6249C72.35 17.537 53.793 42.0638 53.0978 42.5325C52.4026 43.0012 50.1528 42.8727 49.8621 42.5325C49.5714 42.1922 48.0016 37.921 48.6488 34.0389C49.2959 30.1567 46.7613 28.9155 45.4131 28.7802C42.4681 28.7802 35.031 34.4426 30.8511 38.8916Z" fill="var(--fill-0, #FE7023)" fill-opacity="0.2"/>
</g>
</svg>
