<svg preserveAspectRatio="none" overflow="visible" style="display: block;" width="32.1818" height="39.8653" viewBox="0 0 32.1818 39.8653" fill="none" xmlns="http://www.w3.org/2000/svg">
<g id="Group 2085667887">
<path id="Vector 21453" d="M29.323 14.6495C29.323 14.6495 27.5614 17.8446 27.5281 17.2383C27.4948 16.6321 26.9569 13.1618 26.5488 12.3287C23.1222 5.90167 22.3774 5.83504 22.0616 6.25853C21.7457 6.68203 21.1641 7.98423 21.0009 9.20415C20.8378 10.4241 20.4557 9.34398 20.3483 9.20415C20.2408 9.06431 15.4655 2.29252 13.0055 1.17022C10.5455 0.0479146 8.89914 -0.472121 9.25253 0.545347C9.60593 1.56282 10.7999 8.94528 10.15 9.20415C9.50004 9.46302 5.66274 7.151 5.09164 8.49001C4.63475 9.56122 6.47995 17.4126 6.07067 17.4167C5.66139 17.4209 3.96575 15.9349 2.07295 15.7207C-0.293048 15.4529 -0.211463 16.5241 0.278054 18.2201C0.669667 19.577 8.31011 36.6539 8.51826 37.0556C8.72641 37.4572 9.82364 39.7931 10.15 39.8228C11.5859 40.1799 14.1834 37.7194 14.3925 37.5019C14.6016 37.2844 20.9951 37.2844 21.1641 37.5019C21.3331 37.7194 21.4193 38.9745 21.8984 39.555C22.3775 40.1356 25.7494 40.5191 29.0781 34.7346C32.4068 28.9501 32.1785 18.7558 32.1785 18.7558C32.1785 18.7558 32.2274 17.9167 31.4442 15.6315C30.661 13.3462 29.7037 14.0247 29.323 14.6495Z" fill="#FF9D58"/>
</g>
</svg>
