<svg preserveAspectRatio="none" overflow="visible" style="display: block;" width="17.7143" height="17.7143" viewBox="0 0 17.7143 17.7143" fill="none" xmlns="http://www.w3.org/2000/svg">
<g id="material-symbols:alarm-rounded">
<path id="Vector" d="M9.59581 9.29573V6.63859C9.59581 6.42946 9.52495 6.25429 9.38323 6.11306C9.24152 5.97184 9.06635 5.90098 8.85771 5.90049C8.64908 5.9 8.4739 5.97086 8.33219 6.11306C8.19047 6.25527 8.11962 6.43045 8.11962 6.63859V9.57252C8.11962 9.67093 8.13807 9.76639 8.17497 9.8589C8.21188 9.9514 8.26723 10.0343 8.34104 10.1076L10.4077 12.1743C10.543 12.3096 10.7153 12.3773 10.9244 12.3773C11.1335 12.3773 11.3057 12.3096 11.441 12.1743C11.5764 12.039 11.644 11.8668 11.644 11.6576C11.644 11.4485 11.5764 11.2763 11.441 11.141L9.59581 9.29573ZM6.26552 15.7083C5.45952 15.3575 4.75833 14.8839 4.16195 14.2875C3.56557 13.6911 3.09196 12.9899 2.74111 12.1839C2.39027 11.3779 2.21485 10.5136 2.21485 9.59097C2.21485 8.66835 2.39027 7.80429 2.74111 6.99878C3.09196 6.19327 3.56532 5.49208 4.16121 4.89521C4.7571 4.29833 5.45829 3.82472 6.26478 3.47437C7.07127 3.12402 7.93558 2.9486 8.85771 2.94811C9.77984 2.94762 10.6441 3.12304 11.4506 3.47437C12.2571 3.82571 12.9583 4.29932 13.5542 4.89521C14.1501 5.4911 14.6237 6.19229 14.975 6.99878C15.3264 7.80527 15.5016 8.66933 15.5006 9.59097C15.4996 10.5126 15.3244 11.3769 14.975 12.1839C14.6257 12.9909 14.1521 13.6921 13.5542 14.2875C12.9564 14.8829 12.2552 15.3565 11.4506 15.7083C10.6461 16.0601 9.78181 16.2353 8.85771 16.2338C7.93362 16.2324 7.06955 16.0572 6.26552 15.7083ZM1.51366 5.38383C1.37835 5.24851 1.31069 5.07629 1.31069 4.86716C1.31069 4.65803 1.37835 4.48581 1.51366 4.35049L3.61723 2.24692C3.75255 2.1116 3.92477 2.04395 4.1339 2.04395C4.34303 2.04395 4.51525 2.1116 4.65057 2.24692C4.78588 2.38224 4.85354 2.55446 4.85354 2.76359C4.85354 2.97272 4.78588 3.14494 4.65057 3.28025L2.547 5.38383C2.41168 5.51914 2.23946 5.5868 2.03033 5.5868C1.8212 5.5868 1.64898 5.51914 1.51366 5.38383ZM16.2018 5.38383C16.0664 5.51914 15.8942 5.5868 15.6851 5.5868C15.476 5.5868 15.3037 5.51914 15.1684 5.38383L13.0649 3.28025C12.9295 3.14494 12.8619 2.97272 12.8619 2.76359C12.8619 2.55446 12.9295 2.38224 13.0649 2.24692C13.2002 2.1116 13.3724 2.04395 13.5815 2.04395C13.7906 2.04395 13.9629 2.1116 14.0982 2.24692L16.2018 4.35049C16.3371 4.48581 16.4047 4.65803 16.4047 4.86716C16.4047 5.07629 16.3371 5.24851 16.2018 5.38383Z" fill="#FE7023"/>
</g>
</svg>
