<svg preserveAspectRatio="none" overflow="visible" style="display: block;" width="19" height="19" viewBox="0 0 19 19" fill="none" xmlns="http://www.w3.org/2000/svg">
<g id="solar:call-chat-bold">
<path id="Vector" d="M11.5235 12.3088L11.1633 12.6888C11.1633 12.6888 10.3059 13.5905 7.96654 11.1277C5.62717 8.66479 6.48454 7.76308 6.48454 7.76308L6.71175 7.52321C7.27067 6.93421 7.32371 5.98896 6.83525 5.29862L5.83775 3.88708C5.23292 3.03208 4.06521 2.91967 3.3725 3.64879L2.13037 4.95583C1.78758 5.31763 1.558 5.7855 1.58571 6.30563C1.65696 7.63563 2.22537 10.4959 5.39521 13.8344C8.75742 17.3731 11.9122 17.514 13.2018 17.3866C13.6103 17.347 13.965 17.1261 14.2508 16.8253L15.375 15.641C16.135 14.8414 15.9212 13.4718 14.949 12.9129L13.437 12.042C12.7989 11.6755 12.0222 11.7832 11.5235 12.308" fill="#FE7023"/>
<path id="Vector_2" d="M13.4583 9.5C14.3191 9.49985 15.1564 9.21911 15.8433 8.70031C16.5302 8.18151 17.0293 7.45294 17.2649 6.62501C17.5005 5.79707 17.4597 4.9149 17.1489 4.11219C16.838 3.30948 16.274 2.62999 15.5422 2.17667C14.8104 1.72336 13.9508 1.52095 13.0937 1.6001C12.2365 1.67926 11.4285 2.03568 10.7921 2.61533C10.1558 3.19499 9.7257 3.9663 9.5671 4.81236C9.4085 5.65842 9.53002 6.53313 9.91325 7.30392C9.98549 7.44393 10.0043 7.60544 9.96629 7.75833L9.73038 8.63946C9.70702 8.7267 9.70703 8.81855 9.73041 8.90578C9.75379 8.99301 9.79972 9.07256 9.86358 9.13642C9.92744 9.20028 10.007 9.24621 10.0942 9.26959C10.1815 9.29297 10.2733 9.29298 10.3605 9.26962L11.2417 9.03371C11.3946 8.99566 11.5561 9.01451 11.6961 9.08675C12.2437 9.35876 12.8469 9.50021 13.4583 9.5Z" fill="#FE7023"/>
</g>
</svg>
