<svg preserveAspectRatio="none" overflow="visible" style="display: block;" width="17" height="17" viewBox="0 0 17 17" fill="none" xmlns="http://www.w3.org/2000/svg">
<g id="ic:round-log-out">
<path id="Vector" d="M4.25 1.41667H10.625C11.0007 1.41667 11.3611 1.56592 11.6267 1.8316C11.8924 2.09728 12.0417 2.45761 12.0417 2.83333V3.54167C12.0417 3.72953 11.967 3.9097 11.8342 4.04253C11.7014 4.17537 11.5212 4.25 11.3333 4.25C11.1455 4.25 10.9653 4.17537 10.8325 4.04253C10.6996 3.9097 10.625 3.72953 10.625 3.54167V2.83333H4.25V14.1667H10.625V13.4583C10.625 13.2705 10.6996 13.0903 10.8325 12.9575C10.9653 12.8246 11.1455 12.75 11.3333 12.75C11.5212 12.75 11.7014 12.8246 11.8342 12.9575C11.967 13.0903 12.0417 13.2705 12.0417 13.4583V14.1667C12.0417 14.5424 11.8924 14.9027 11.6267 15.1684C11.3611 15.4341 11.0007 15.5833 10.625 15.5833H4.25C3.87428 15.5833 3.51394 15.4341 3.24827 15.1684C2.98259 14.9027 2.83333 14.5424 2.83333 14.1667V2.83333C2.83333 2.45761 2.98259 2.09728 3.24827 1.8316C3.51394 1.56592 3.87428 1.41667 4.25 1.41667Z" fill="#FE7023"/>
<path id="Vector_2" d="M11.8965 11.5423C12.1727 11.8185 12.619 11.8185 12.8952 11.5423L15.4367 9.00079C15.5695 8.86796 15.6441 8.68782 15.6441 8.5C15.6441 8.31218 15.5695 8.13204 15.4367 7.99921L12.8952 5.45771C12.7606 5.33601 12.5843 5.2707 12.4029 5.27528C12.2214 5.27986 12.0487 5.35398 11.9204 5.48232C11.792 5.61065 11.7179 5.78339 11.7133 5.96483C11.7087 6.14626 11.7741 6.32252 11.8958 6.45717L13.2246 7.79167H7.08333C6.89547 7.79167 6.7153 7.86629 6.58247 7.99913C6.44963 8.13197 6.375 8.31214 6.375 8.5C6.375 8.68786 6.44963 8.86803 6.58247 9.00087C6.7153 9.13371 6.89547 9.20833 7.08333 9.20833H13.2246L11.8958 10.5428C11.7637 10.6757 11.6896 10.8554 11.6898 11.0427C11.6899 11.23 11.7642 11.4096 11.8965 11.5423Z" fill="#FE7023"/>
</g>
</svg>
