<svg preserveAspectRatio="none" overflow="visible" style="display: block;" width="31" height="31" viewBox="0 0 31 31" fill="none" xmlns="http://www.w3.org/2000/svg">
<g id="Frame 2087331019">
<rect width="31" height="31" rx="15.5" fill="#FEECD2"/>
<path id="Vector" d="M17.2051 17.1694L18.6365 14.6717C18.6365 14.6717 18.5607 14.6037 18.4428 14.5187L17.2051 13.5332L17.1966 13.5502C17.2219 13.3463 17.2387 13.1509 17.2387 12.947C17.2387 12.7431 17.2219 12.5477 17.1882 12.3608L17.1966 12.3693L18.6365 11.2309L17.2051 8.72464L15.5126 9.41279V9.42129C15.2011 9.18341 14.8643 8.97951 14.5022 8.82659H14.5106L14.258 7H11.3868L11.1258 8.82659H11.1342C10.7722 8.97951 10.4354 9.18341 10.1238 9.42129V9.41279L8.4314 8.72464L7 11.2309L8.4314 12.3693L8.43982 12.3608C8.41456 12.5477 8.39772 12.7431 8.39772 12.947C8.39772 13.1509 8.41456 13.3463 8.43982 13.5502L8.4314 13.5332L7.19366 14.5187C7.0842 14.6037 7 14.6717 7 14.6717L8.4314 17.1694L10.1322 16.4898L10.1154 16.4643C10.4269 16.7106 10.7637 16.9145 11.1342 17.0675H11.1258L11.3868 18.8941H14.2496C14.2496 18.8941 14.2665 18.7836 14.2833 18.6392L14.5106 17.0675H14.5022C14.8727 16.9145 15.2095 16.7106 15.5211 16.4643L15.5042 16.4898L17.2051 17.1694ZM12.8182 14.6462C11.892 14.6462 11.1342 13.8816 11.1342 12.947C11.1342 12.0125 11.892 11.2479 12.8182 11.2479C13.7444 11.2479 14.5022 12.0125 14.5022 12.947C14.5022 13.8816 13.7444 14.6462 12.8182 14.6462ZM23.0654 20.5422L23.057 20.5507C23.0738 20.4233 23.0822 20.2959 23.0822 20.1684C23.0822 20.041 23.0738 19.9135 23.0485 19.7946L23.057 19.8031L23.9832 19.0725L23.0654 17.4583L21.9792 17.9001V17.9085C21.7771 17.7556 21.5666 17.6282 21.3309 17.5262H21.3393L21.1709 16.3453H19.3269L19.1585 17.5177H19.1669C18.9312 17.6197 18.7207 17.7471 18.5186 17.9001V17.8916L17.4324 17.4498L16.5146 19.064L17.4324 19.7946L17.4408 19.7861C17.424 19.905 17.4156 20.0325 17.4156 20.1599C17.4156 20.2874 17.424 20.4148 17.4408 20.5507L17.4324 20.5422L16.6409 21.1794C16.5736 21.2304 16.5146 21.2814 16.5146 21.2814L17.4324 22.8871L18.527 22.4538L18.5186 22.4368C18.7207 22.5982 18.9396 22.7256 19.1753 22.8276H19.1669L19.3353 24H21.1793C21.1793 24 21.1877 23.932 21.2046 23.8386L21.3477 22.8276H21.3393C21.575 22.7256 21.794 22.5982 21.996 22.4368L21.9876 22.4538L23.0822 22.8871L24 21.2814C24 21.2814 23.9495 21.2389 23.8737 21.1794L23.0654 20.5422ZM20.2447 21.2644C19.6469 21.2644 19.1585 20.7716 19.1585 20.1684C19.1585 19.5652 19.6469 19.0725 20.2447 19.0725C20.8425 19.0725 21.3309 19.5652 21.3309 20.1684C21.3309 20.7716 20.8425 21.2644 20.2447 21.2644Z" fill="#FE7023"/>
</g>
</svg>
